<?xml version="1.0" encoding="utf-8"?>
<svg width="340px" height="340px" viewBox="0 0 340 340" version="1.1" xmlns:xlink="http://www.w3.org/1999/xlink" xmlns="http://www.w3.org/2000/svg">
  <path d="M177.173 14.534L218.101 97.4625Q218.315 97.897 218.58 98.3024Q218.846 98.7079 219.158 99.0783Q219.47 99.4488 219.825 99.7789Q220.18 100.109 220.572 100.394Q220.964 100.679 221.387 100.914Q221.811 101.149 222.26 101.332Q222.709 101.514 223.176 101.642Q223.644 101.769 224.123 101.838L315.64 115.136Q315.916 115.176 316.187 115.235Q316.459 115.294 316.726 115.372Q316.993 115.45 317.254 115.546Q317.515 115.642 317.769 115.756Q318.023 115.87 318.268 116.002Q318.513 116.133 318.749 116.281Q318.984 116.429 319.209 116.593Q319.433 116.757 319.646 116.937Q319.859 117.116 320.058 117.31Q320.258 117.503 320.444 117.71Q320.63 117.917 320.8 118.137Q320.971 118.356 321.127 118.587Q321.282 118.818 321.421 119.059Q321.56 119.3 321.682 119.55Q321.803 119.8 321.907 120.058Q322.012 120.316 322.098 120.58Q322.184 120.845 322.251 121.115Q322.318 121.385 322.367 121.659Q322.415 121.932 322.444 122.209Q322.474 122.486 322.484 122.764Q322.494 123.042 322.485 123.32Q322.475 123.598 322.447 123.874Q322.418 124.151 322.37 124.425Q322.323 124.699 322.256 124.969Q322.189 125.239 322.104 125.504Q322.019 125.769 321.915 126.027Q321.812 126.285 321.691 126.536Q321.57 126.786 321.431 127.027Q321.293 127.269 321.138 127.5Q320.984 127.731 320.813 127.951Q320.643 128.171 320.458 128.378Q320.273 128.586 320.073 128.78L253.851 193.331Q253.504 193.669 253.201 194.047Q252.897 194.424 252.641 194.836Q252.385 195.247 252.181 195.687Q251.977 196.126 251.827 196.587Q251.677 197.048 251.584 197.523Q251.491 197.999 251.456 198.482Q251.422 198.966 251.445 199.45Q251.469 199.934 251.551 200.411L267.184 291.558Q267.231 291.832 267.259 292.109Q267.287 292.386 267.295 292.664Q267.304 292.942 267.293 293.22Q267.282 293.498 267.252 293.774Q267.222 294.051 267.173 294.325Q267.124 294.598 267.056 294.868Q266.988 295.138 266.901 295.402Q266.814 295.667 266.71 295.924Q266.605 296.182 266.482 296.432Q266.36 296.681 266.22 296.922Q266.081 297.163 265.925 297.393Q265.769 297.623 265.598 297.842Q265.426 298.061 265.24 298.268Q265.053 298.475 264.853 298.668Q264.653 298.861 264.44 299.039Q264.227 299.218 264.002 299.382Q263.777 299.545 263.541 299.693Q263.305 299.84 263.059 299.971Q262.814 300.102 262.56 300.215Q262.306 300.328 262.045 300.424Q261.783 300.519 261.516 300.596Q261.249 300.673 260.977 300.732Q260.705 300.79 260.429 300.829Q260.154 300.869 259.877 300.889Q259.599 300.909 259.321 300.909Q259.043 300.91 258.765 300.892Q258.488 300.873 258.212 300.835Q257.937 300.797 257.664 300.74Q257.392 300.684 257.124 300.608Q256.857 300.532 256.595 300.438Q256.333 300.344 256.079 300.232Q255.824 300.12 255.578 299.991L173.723 256.957Q173.294 256.731 172.841 256.559Q172.388 256.387 171.917 256.271Q171.447 256.155 170.966 256.097Q170.485 256.038 170 256.038Q169.516 256.038 169.035 256.097Q168.554 256.155 168.083 256.271Q167.613 256.387 167.16 256.559Q166.707 256.731 166.278 256.957L84.4229 299.991Q84.1767 300.12 83.9221 300.232Q83.6675 300.345 83.4057 300.439Q83.1439 300.533 82.8763 300.608Q82.6086 300.684 82.3363 300.741Q82.064 300.798 81.7885 300.836Q81.5129 300.873 81.2353 300.892Q80.9578 300.911 80.6796 300.91Q80.4015 300.909 80.124 300.889Q79.8466 300.869 79.5712 300.83Q79.2959 300.79 79.0239 300.732Q78.7519 300.674 78.4846 300.597Q78.2173 300.52 77.9561 300.424Q77.6948 300.329 77.4408 300.216Q77.1868 300.102 76.9412 299.971Q76.6957 299.841 76.4599 299.693Q76.224 299.546 75.999 299.382Q75.7739 299.219 75.5608 299.04Q75.3476 298.861 75.1474 298.668Q74.9472 298.475 74.7609 298.268Q74.5746 298.062 74.4031 297.843Q74.2316 297.624 74.0757 297.394Q73.9198 297.163 73.7803 296.923Q73.6408 296.682 73.5184 296.432Q73.3959 296.182 73.2911 295.925Q73.1863 295.667 73.0997 295.403Q73.013 295.138 72.9449 294.869Q72.8768 294.599 72.8277 294.325Q72.7785 294.051 72.7484 293.775Q72.7184 293.498 72.7076 293.22Q72.6969 292.942 72.7054 292.664Q72.714 292.386 72.7419 292.11Q72.7697 291.833 72.8167 291.559L88.4494 200.412Q88.5313 199.934 88.555 199.45Q88.5787 198.966 88.5437 198.483Q88.5088 197.999 88.4158 197.524Q88.3228 197.048 88.173 196.588Q88.0233 196.127 87.819 195.687Q87.6147 195.248 87.3589 194.836Q87.1031 194.425 86.7995 194.047Q86.4959 193.67 86.1489 193.331L19.9264 128.781Q19.7272 128.587 19.542 128.379Q19.3567 128.172 19.1864 127.952Q19.016 127.732 18.8614 127.501Q18.7067 127.27 18.5685 127.028Q18.4302 126.787 18.3091 126.536Q18.1879 126.286 18.0845 126.028Q17.981 125.77 17.8958 125.505Q17.8105 125.24 17.7439 124.97Q17.6772 124.7 17.6295 124.426Q17.5817 124.152 17.5531 123.875Q17.5245 123.598 17.5152 123.32Q17.5059 123.042 17.5159 122.764Q17.526 122.487 17.5553 122.21Q17.5846 121.933 17.6331 121.659Q17.6815 121.385 17.7489 121.116Q17.8163 120.846 17.9022 120.581Q17.9882 120.317 18.0923 120.059Q18.1964 119.801 18.3182 119.551Q18.44 119.301 18.5789 119.06Q18.7178 118.819 18.873 118.588Q19.0283 118.357 19.1992 118.138Q19.3702 117.918 19.5559 117.711Q19.7417 117.504 19.9414 117.31Q20.1411 117.117 20.3538 116.937Q20.5664 116.758 20.791 116.594Q21.0156 116.43 21.2511 116.282Q21.4866 116.134 21.7317 116.002Q21.9769 115.871 22.2306 115.757Q22.4844 115.643 22.7454 115.547Q23.0064 115.451 23.2735 115.373Q23.5405 115.295 23.8124 115.236Q24.0842 115.177 24.3595 115.137L115.876 101.839Q116.356 101.769 116.823 101.642Q117.291 101.515 117.74 101.332Q118.189 101.15 118.612 100.914Q119.036 100.679 119.428 100.394Q119.82 100.109 120.175 99.7791Q120.529 99.4491 120.842 99.0786Q121.154 98.7082 121.419 98.3027Q121.685 97.8973 121.899 97.4628L162.827 14.534Q162.95 14.2846 163.09 14.0443Q163.23 13.804 163.387 13.5741Q163.543 13.3441 163.715 13.1255Q163.887 12.907 164.074 12.7009Q164.261 12.4949 164.462 12.3023Q164.663 12.1097 164.876 11.9315Q165.09 11.7534 165.315 11.5905Q165.541 11.4275 165.777 11.2807Q166.013 11.1338 166.259 11.0038Q166.505 10.8737 166.759 10.761Q167.014 10.6483 167.275 10.5535Q167.537 10.4588 167.804 10.3824Q168.072 10.3061 168.344 10.2485Q168.616 10.1909 168.891 10.1523Q169.167 10.1138 169.444 10.0944Q169.722 10.0751 170 10.0751Q170.278 10.0751 170.556 10.0944Q170.833 10.1138 171.109 10.1523Q171.384 10.1909 171.656 10.2485Q171.928 10.3061 172.196 10.3824Q172.463 10.4588 172.725 10.5535Q172.986 10.6483 173.241 10.761Q173.495 10.8737 173.741 11.0038Q173.987 11.1339 174.223 11.2807Q174.459 11.4276 174.685 11.5905Q174.91 11.7534 175.124 11.9315Q175.337 12.1097 175.538 12.3023Q175.739 12.4949 175.926 12.701Q176.112 12.907 176.285 13.1256Q176.457 13.3441 176.613 13.5741Q176.77 13.804 176.91 14.0443Q177.05 14.2846 177.173 14.534L177.173 14.534Z" id="Star-Copy" fill="#FF7C0B" fill-rule="evenodd" stroke="none" />
</svg>