<?xml version="1.0" encoding="utf-8"?>
<svg width="305px" height="291px" viewBox="0 0 305 291" version="1.1" xmlns:xlink="http://www.w3.org/1999/xlink" xmlns="http://www.w3.org/2000/svg">
  <g id="Group">
    <path d="M152.489 5.25571e-05Q152.211 5.23167e-05 151.934 0.0193746Q151.656 0.0386969 151.381 0.0772484Q151.105 0.1158 150.833 0.173394Q150.561 0.230989 150.293 0.307348Q150.026 0.383707 149.764 0.478462Q149.503 0.573216 149.249 0.685909Q148.994 0.798602 148.748 0.928689Q148.503 1.05877 148.266 1.20563Q148.03 1.35248 147.805 1.51538Q147.579 1.67829 147.365 1.85647Q147.152 2.03464 146.951 2.22723Q146.75 2.41981 146.564 2.62587Q146.377 2.83193 146.205 3.05047Q146.033 3.26902 145.876 3.49898Q145.72 3.72895 145.579 3.96924Q145.439 4.20952 145.316 4.45896L104.388 87.3877Q104.174 87.8222 103.909 88.2277Q103.643 88.6331 103.331 89.0036Q103.019 89.374 102.664 89.7041Q102.309 90.0341 101.917 90.3189Q101.525 90.6037 101.101 90.8391Q100.678 91.0746 100.229 91.2571Q99.7803 91.4397 99.3127 91.5667Q98.8451 91.6938 98.3656 91.7635L6.84873 105.062Q6.57346 105.102 6.30163 105.161Q6.02981 105.22 5.76273 105.298Q5.49566 105.376 5.23464 105.472Q4.97362 105.568 4.7199 105.682Q4.46619 105.796 4.22101 105.927Q3.97583 106.059 3.74036 106.207Q3.5049 106.355 3.28029 106.519Q3.05569 106.683 2.84302 106.862Q2.63036 107.042 2.43066 107.235Q2.23096 107.429 2.0452 107.636Q1.85943 107.843 1.6885 108.062Q1.51757 108.282 1.36229 108.513Q1.20702 108.743 1.06815 108.984Q0.92928 109.225 0.807489 109.476Q0.685698 109.726 0.581573 109.984Q0.477448 110.242 0.391492 110.506Q0.305537 110.771 0.238165 111.04Q0.170794 111.31 0.122333 111.584Q0.0738718 111.858 0.0445547 112.135Q0.0152376 112.411 0.0052063 112.689Q-0.00482501 112.967 0.00447792 113.245Q0.0137809 113.523 0.0423731 113.8Q0.0709653 114.077 0.118709 114.351Q0.166452 114.625 0.233116 114.895Q0.29978 115.165 0.385042 115.43Q0.470304 115.694 0.573753 115.953Q0.677202 116.211 0.798338 116.461Q0.919473 116.712 1.05771 116.953Q1.19595 117.194 1.35062 117.426Q1.50529 117.657 1.67565 117.877Q1.846 118.097 2.03122 118.304Q2.21644 118.512 2.41563 118.706L68.6381 183.256Q68.9851 183.595 69.2888 183.972Q69.5924 184.35 69.8482 184.761Q70.104 185.173 70.3083 185.612Q70.5125 186.052 70.6623 186.512Q70.812 186.973 70.905 187.449Q70.998 187.924 71.033 188.408Q71.0679 188.891 71.0442 189.375Q71.0206 189.859 70.9387 190.336L55.306 281.484Q55.259 281.758 55.2311 282.035Q55.2032 282.311 55.1947 282.589Q55.1861 282.867 55.1969 283.145Q55.2076 283.423 55.2377 283.7Q55.2677 283.976 55.3169 284.25Q55.3661 284.524 55.4342 284.794Q55.5023 285.063 55.5889 285.328Q55.6756 285.592 55.7804 285.85Q55.8852 286.107 56.0076 286.357Q56.1301 286.607 56.2696 286.847Q56.4091 287.088 56.565 287.318Q56.7209 287.549 56.8924 287.768Q57.0639 287.987 57.2502 288.193Q57.4365 288.4 57.6367 288.593Q57.8369 288.786 58.05 288.965Q58.2632 289.144 58.4882 289.307Q58.7133 289.471 58.9491 289.618Q59.185 289.766 59.4305 289.896Q59.676 290.027 59.93 290.14Q60.184 290.254 60.4453 290.349Q60.7066 290.445 60.9739 290.522Q61.2411 290.599 61.5131 290.657Q61.7851 290.715 62.0605 290.755Q62.3359 290.794 62.6133 290.814Q62.8907 290.834 63.1689 290.835Q63.447 290.835 63.7246 290.817Q64.0021 290.798 64.2777 290.76Q64.5533 290.723 64.8256 290.666Q65.0979 290.609 65.3655 290.533Q65.6332 290.458 65.895 290.364Q66.1568 290.269 66.4114 290.157Q66.666 290.045 66.9122 289.916L148.767 246.882Q149.628 246.429 150.572 246.196Q151.517 245.963 152.489 245.963L152.489 5.25571e-05L152.489 5.25571e-05Z" id="Star-Copy-2-Difference" fill="#FF7C0B" fill-rule="evenodd" stroke="none" />
    <path d="M152.489 5.25571e-05Q152.211 5.23167e-05 151.934 0.0193746Q151.656 0.0386969 151.381 0.0772484Q151.105 0.1158 150.833 0.173394Q150.561 0.230989 150.293 0.307348Q150.026 0.383707 149.764 0.478462Q149.503 0.573216 149.249 0.685909Q148.994 0.798602 148.748 0.928689Q148.503 1.05877 148.266 1.20563Q148.03 1.35248 147.805 1.51538Q147.579 1.67829 147.365 1.85647Q147.152 2.03464 146.951 2.22723Q146.75 2.41981 146.564 2.62587Q146.377 2.83193 146.205 3.05047Q146.033 3.26902 145.876 3.49898Q145.72 3.72895 145.579 3.96924Q145.439 4.20952 145.316 4.45896L104.388 87.3877Q104.174 87.8222 103.909 88.2277Q103.643 88.6331 103.331 89.0036Q103.019 89.374 102.664 89.7041Q102.309 90.0341 101.917 90.3189Q101.525 90.6037 101.101 90.8391Q100.678 91.0746 100.229 91.2571Q99.7803 91.4397 99.3127 91.5667Q98.8451 91.6938 98.3656 91.7635L6.84873 105.062Q6.57346 105.102 6.30163 105.161Q6.02981 105.22 5.76273 105.298Q5.49566 105.376 5.23464 105.472Q4.97362 105.568 4.7199 105.682Q4.46619 105.796 4.22101 105.927Q3.97583 106.059 3.74036 106.207Q3.5049 106.355 3.28029 106.519Q3.05569 106.683 2.84302 106.862Q2.63036 107.042 2.43066 107.235Q2.23096 107.429 2.0452 107.636Q1.85943 107.843 1.6885 108.062Q1.51757 108.282 1.36229 108.513Q1.20702 108.743 1.06815 108.984Q0.92928 109.225 0.807489 109.476Q0.685698 109.726 0.581573 109.984Q0.477448 110.242 0.391492 110.506Q0.305537 110.771 0.238165 111.04Q0.170794 111.31 0.122333 111.584Q0.0738718 111.858 0.0445547 112.135Q0.0152376 112.411 0.0052063 112.689Q-0.00482501 112.967 0.00447792 113.245Q0.0137809 113.523 0.0423731 113.8Q0.0709653 114.077 0.118709 114.351Q0.166452 114.625 0.233116 114.895Q0.29978 115.165 0.385042 115.43Q0.470304 115.694 0.573753 115.953Q0.677202 116.211 0.798338 116.461Q0.919473 116.712 1.05771 116.953Q1.19595 117.194 1.35062 117.426Q1.50529 117.657 1.67565 117.877Q1.846 118.097 2.03122 118.304Q2.21644 118.512 2.41563 118.706L68.6381 183.256Q68.9851 183.595 69.2888 183.972Q69.5924 184.35 69.8482 184.761Q70.104 185.173 70.3083 185.612Q70.5125 186.052 70.6623 186.512Q70.812 186.973 70.905 187.449Q70.998 187.924 71.033 188.408Q71.0679 188.891 71.0442 189.375Q71.0206 189.859 70.9387 190.336L55.306 281.484Q55.259 281.758 55.2311 282.035Q55.2032 282.311 55.1947 282.589Q55.1861 282.867 55.1969 283.145Q55.2076 283.423 55.2377 283.7Q55.2677 283.976 55.3169 284.25Q55.3661 284.524 55.4342 284.794Q55.5023 285.063 55.5889 285.328Q55.6756 285.592 55.7804 285.85Q55.8852 286.107 56.0076 286.357Q56.1301 286.607 56.2696 286.847Q56.4091 287.088 56.565 287.318Q56.7209 287.549 56.8924 287.768Q57.0639 287.987 57.2502 288.193Q57.4365 288.4 57.6367 288.593Q57.8369 288.786 58.05 288.965Q58.2632 289.144 58.4882 289.307Q58.7133 289.471 58.9491 289.618Q59.185 289.766 59.4305 289.896Q59.676 290.027 59.93 290.14Q60.184 290.254 60.4453 290.349Q60.7066 290.445 60.9739 290.522Q61.2411 290.599 61.5131 290.657Q61.7851 290.715 62.0605 290.755Q62.3359 290.794 62.6133 290.814Q62.8907 290.834 63.1689 290.835Q63.447 290.835 63.7246 290.817Q64.0021 290.798 64.2777 290.76Q64.5533 290.723 64.8256 290.666Q65.0979 290.609 65.3655 290.533Q65.6332 290.458 65.895 290.364Q66.1568 290.269 66.4114 290.157Q66.666 290.045 66.9122 289.916L148.767 246.882Q149.628 246.429 150.572 246.196Q151.517 245.963 152.489 245.963L152.489 5.25571e-05L152.489 5.25571e-05Z" transform="matrix(-1 0 0 1 304.48926 0)" id="Star-Copy-2-Difference-2" fill="#D3D3D3" fill-rule="evenodd" stroke="none" />
  </g>
</svg>